<?xml version="1.0" encoding="UTF-8" standalone="no"?>
<svg
   xmlns:osb="http://www.openswatchbook.org/uri/2009/osb"
   xmlns:dc="http://purl.org/dc/elements/1.1/"
   xmlns:cc="http://creativecommons.org/ns#"
   xmlns:rdf="http://www.w3.org/1999/02/22-rdf-syntax-ns#"
   xmlns:svg="http://www.w3.org/2000/svg"
   xmlns="http://www.w3.org/2000/svg"
   xmlns:sodipodi="http://sodipodi.sourceforge.net/DTD/sodipodi-0.dtd"
   xmlns:inkscape="http://www.inkscape.org/namespaces/inkscape"
   version="1.1"
   id="mdi-lock-outline"
   width="24"
   height="24"
   viewBox="0 0 24 24"
   sodipodi:docname="database-lock-all.svg"
   inkscape:version="1.0.2 (e86c870879, 2021-01-15)">
  <metadata
     id="metadata90">
    <rdf:RDF>
      <cc:Work
         rdf:about="">
        <dc:format>image/svg+xml</dc:format>
        <dc:type
           rdf:resource="http://purl.org/dc/dcmitype/StillImage" />
        <dc:title />
      </cc:Work>
    </rdf:RDF>
  </metadata>
  <defs
     id="defs88">
    <linearGradient
       id="linearGradient2831"
       osb:paint="solid">
      <stop
         style="stop-color:#000000;stop-opacity:1;"
         offset="0"
         id="stop2829" />
    </linearGradient>
    <linearGradient
       id="linearGradient2953"
       osb:paint="solid">
      <stop
         style="stop-color:#000000;stop-opacity:1;"
         offset="0"
         id="stop2951" />
    </linearGradient>
    <linearGradient
       id="linearGradient2935"
       osb:paint="solid">
      <stop
         style="stop-color:#000000;stop-opacity:1;"
         offset="0"
         id="stop2933" />
    </linearGradient>
    <linearGradient
       id="linearGradient2905"
       osb:paint="solid">
      <stop
         style="stop-color:#000000;stop-opacity:1;"
         offset="0"
         id="stop2903" />
    </linearGradient>
  </defs>
  <sodipodi:namedview
     pagecolor="#ffffff"
     bordercolor="#666666"
     borderopacity="1"
     objecttolerance="10"
     gridtolerance="10"
     guidetolerance="10"
     inkscape:pageopacity="0"
     inkscape:pageshadow="2"
     inkscape:window-width="1920"
     inkscape:window-height="1080"
     id="namedview86"
     showgrid="false"
     inkscape:zoom="16"
     inkscape:cx="22.107579"
     inkscape:cy="14.633796"
     inkscape:window-x="0"
     inkscape:window-y="0"
     inkscape:window-maximized="1"
     inkscape:current-layer="mdi-lock-outline"
     inkscape:document-rotation="0" />
  <g
     id="g3667"
     transform="matrix(1.0425109,0,0,1.0425109,-0.21802196,0.13558393)">
    <path
       id="path83-9-9"
       style="stroke-width:0.65502"
       d="M 7.2753906,0.64453125 C 6.7976469,0.63007525 6.3156614,0.72304155 5.8710938,0.94335938 4.5305183,1.5143067 3.8128365,3.0065499 3.953125,4.4179688 3.8676077,4.6868125 4.1682251,5.34313 3.7050781,5.234375 2.9355062,5.1152574 2.0498824,5.5606978 1.9941406,6.4101562 c -0.01561,2.0918845 -0.00335,4.1832248 -0.00781,6.2753908 -0.1189906,0.769294 0.32848,1.654881 1.1757813,1.712891 1.8549277,0.01166 3.7111529,0.0052 5.5664062,0.0039 V 13.09375 H 3.296875 V 6.5449219 h 7.861328 v 4.1054691 h 1.300781 c -4.44e-4,-1.2522405 0.002,-2.5039137 0.0078,-3.7558598 C 12.604375,6.0914433 12.023166,5.206084 11.158203,5.234375 h -0.65625 C 10.481023,4.5421141 10.563801,3.8398525 10.412109,3.1582031 10.112167,1.7001548 8.7086219,0.68789924 7.2753906,0.64453125 Z M 7.2265625,1.9589844 c 0.4652437,-0.00134 0.9290923,0.1705693 1.28125,0.4746094 0.8680088,0.6814274 0.6646277,1.8367718 0.6855469,2.8007812 H 5.3203125 C 5.1810725,5.0146645 5.3028667,4.5326569 5.2617188,4.2148438 5.108948,3.0731396 6.0505756,1.9222944 7.2265625,1.9589844 Z m 0.097656,6.5585937 C 6.9543335,8.4784776 6.5721007,8.5869698 6.2988281,8.890625 5.4647098,9.6415329 6.1040305,11.190352 7.2265625,11.128906 7.963349,11.144678 8.5976952,10.470132 8.5351562,9.7363281 8.5267816,9.0603906 7.9406942,8.5827456 7.3242185,8.5175781 Z" />
    <g
       id="g3042"
       transform="matrix(0.9537927,0,0,0.9537927,3.6841141,0.52079968)">
      <path
         id="path83"
         style="fill:#000000;fill-opacity:1;fill-rule:evenodd;stroke-width:0.857645"
         d="m 11.772913,18.339139 c -1.321612,0.06502 -2.212582,-1.616696 -1.423574,-2.676374 0.675896,-1.11568 2.526235,-0.936478 2.993201,0.269347 0.513076,1.094607 -0.35634,2.435297 -1.569627,2.407027 z m 5.145874,2.572937 c 0,-2.858819 0,-5.717639 0,-8.576458 -3.430583,0 -6.861165,0 -10.291748,0 0,2.858819 0,5.717639 0,8.576458 3.430583,0 6.861165,0 10.291748,0 z m 0,-10.291748 c 1.037844,-0.03275 1.855118,0.989361 1.715291,1.992281 -0.0093,2.839524 0.01867,5.680545 -0.01412,8.519125 -0.09642,0.978899 -1.095078,1.626053 -2.033558,1.495633 -3.378427,-0.0059 -6.757451,0.01181 -10.135504,-0.0089 -1.031704,-0.07205 -1.676962,-1.125587 -1.539145,-2.09418 0.0058,-2.7882 -0.01166,-5.576982 0.0088,-8.364816 0.06826,-1.003252 1.084593,-1.671127 2.038878,-1.539143 0.431746,0.09047 0.634095,-0.04846 0.525255,-0.498584 -0.02466,-1.2616008 -0.03998,-2.6158008 0.771202,-3.6701606 1.262551,-1.9130766 4.124935,-2.4233386 5.97048,-1.0635732 1.325782,0.8844491 1.958397,2.5156402 1.834775,4.0710096 0,0.3871022 0,0.7742062 0,1.1613082 0.285882,0 0.571764,0 0.857646,0 z M 11.772913,6.3320992 c -1.489054,-0.044419 -2.738702,1.3852289 -2.572937,2.8499292 0,0.4794332 0,0.9588666 0,1.4382996 1.715291,0 3.430583,0 5.145874,0 C 14.29348,9.4940822 14.576957,8.2195058 13.771116,7.2841752 13.29259,6.6875108 12.537748,6.3278575 11.772913,6.3320992 Z" />
    </g>
  </g>
</svg>
