<?xml version="1.0" encoding="UTF-8" standalone="no"?>
<svg
   xmlns:dc="http://purl.org/dc/elements/1.1/"
   xmlns:cc="http://creativecommons.org/ns#"
   xmlns:rdf="http://www.w3.org/1999/02/22-rdf-syntax-ns#"
   xmlns:svg="http://www.w3.org/2000/svg"
   xmlns="http://www.w3.org/2000/svg"
   xmlns:sodipodi="http://sodipodi.sourceforge.net/DTD/sodipodi-0.dtd"
   xmlns:inkscape="http://www.inkscape.org/namespaces/inkscape"
   version="1.1"
   id="mdi-lock-outline"
   width="24"
   height="24"
   viewBox="0 0 24 24"
   sodipodi:docname="database-lock.svg"
   inkscape:version="1.0.2 (e86c870879, 2021-01-15)">
  <metadata
     id="metadata90">
    <rdf:RDF>
      <cc:Work
         rdf:about="">
        <dc:format>image/svg+xml</dc:format>
        <dc:type
           rdf:resource="http://purl.org/dc/dcmitype/StillImage" />
        <dc:title></dc:title>
      </cc:Work>
    </rdf:RDF>
  </metadata>
  <defs
     id="defs88" />
  <sodipodi:namedview
     pagecolor="#ffffff"
     bordercolor="#666666"
     borderopacity="1"
     objecttolerance="10"
     gridtolerance="10"
     guidetolerance="10"
     inkscape:pageopacity="0"
     inkscape:pageshadow="2"
     inkscape:window-width="1920"
     inkscape:window-height="1060"
     id="namedview86"
     showgrid="false"
     inkscape:zoom="5.6568543"
     inkscape:cx="37.266421"
     inkscape:cy="42.490714"
     inkscape:window-x="0"
     inkscape:window-y="0"
     inkscape:window-maximized="1"
     inkscape:current-layer="mdi-lock-outline" />
  <path
     d="M12,17C10.89,17 10,16.1 10,15C10,13.89 10.89,13 12,13A2,2 0 0,1 14,15A2,2 0 0,1 12,17M18,20V10H6V20H18M18,8A2,2 0 0,1 20,10V20A2,2 0 0,1 18,22H6C4.89,22 4,21.1 4,20V10C4,8.89 4.89,8 6,8H7V6A5,5 0 0,1 12,1A5,5 0 0,1 17,6V8H18M12,3A3,3 0 0,0 9,6V8H15V6A3,3 0 0,0 12,3Z"
     id="path83" />
</svg>
